<svg viewBox="0 0 24 24" fill="none" xmlns="http://www.w3.org/2000/svg">
<path d="M6.59999 13.9528L7.17209 14.773C7.44021 14.586 7.59999 14.2797 7.59999 13.9528H6.59999ZM11.4 13.9528H10.4C10.4 14.2373 10.5211 14.5082 10.7331 14.6979L11.4 13.9528ZM8.99999 16.4C8.4477 16.4 7.99999 16.8477 7.99999 17.4C7.99999 17.9523 8.4477 18.4 8.99999 18.4V16.4ZM9.05624 18.4C9.60852 18.4 10.0562 17.9523 10.0562 17.4C10.0562 16.8477 9.60852 16.4 9.05624 16.4V18.4ZM12.2 17.4C12.2 19.1673 10.7673 20.6 8.99999 20.6V22.6C11.8719 22.6 14.2 20.2719 14.2 17.4H12.2ZM8.99999 20.6C7.23268 20.6 5.79999 19.1673 5.79999 17.4H3.79999C3.79999 20.2719 6.12811 22.6 8.99999 22.6V20.6ZM5.79999 17.4C5.79999 16.3134 6.34062 15.353 7.17209 14.773L6.02789 13.1326C4.68317 14.0706 3.79999 15.6321 3.79999 17.4H5.79999ZM10.7331 14.6979C11.0779 15.0066 11.4596 15.4702 11.7502 15.9879C12.0462 16.515 12.2 17.0123 12.2 17.4H14.2C14.2 16.5438 13.8834 15.702 13.4942 15.0088C13.0996 14.3061 12.5813 13.6681 12.0669 13.2077L10.7331 14.6979ZM10.4 4.79999V13.9528H12.4V4.79999H10.4ZM7.59999 13.9528V4.79843H5.59999V13.9528H7.59999ZM8.99999 3.39999C9.77319 3.39999 10.4 4.0268 10.4 4.79999H12.4C12.4 2.92223 10.8778 1.39999 8.99999 1.39999V3.39999ZM8.99999 1.39999C7.12307 1.39999 5.59999 2.91981 5.59999 4.79843H7.59999C7.59999 4.02608 8.22594 3.39999 8.99999 3.39999V1.39999ZM8.99999 18.4H9.05624V16.4H8.99999V18.4ZM18.2 7.19999C18.2 7.97319 17.5732 8.59999 16.8 8.59999V10.6C18.6778 10.6 20.2 9.07776 20.2 7.19999H18.2ZM16.8 8.59999C16.0268 8.59999 15.4 7.97319 15.4 7.19999H13.4C13.4 9.07776 14.9222 10.6 16.8 10.6V8.59999ZM15.4 7.19999C15.4 6.4268 16.0268 5.79999 16.8 5.79999V3.79999C14.9222 3.79999 13.4 5.32223 13.4 7.19999H15.4ZM16.8 5.79999C17.5732 5.79999 18.2 6.4268 18.2 7.19999H20.2C20.2 5.32223 18.6778 3.79999 16.8 3.79999V5.79999Z" fill="currentColor"/>
</svg>
