<svg viewBox="0 0 24 24" fill="none" xmlns="http://www.w3.org/2000/svg">
<path d="M8.40001 17.4H8.45626M14.55 11.25L16.8 8.99999M16.8 8.99999L19.05 11.25M16.8 8.99999V5.39999M16.8 8.99999L13.8 7.49999M16.8 8.99999L19.8 7.49999M12.6 17.4C12.6 19.7196 10.7196 21.6 8.40001 21.6C6.08042 21.6 4.20001 19.7196 4.20001 17.4C4.20001 15.9727 4.91192 14.7118 6.00001 13.9528V4.79843C6.00001 3.47294 7.07453 2.39999 8.40001 2.39999C9.7255 2.39999 10.8 3.47451 10.8 4.79999V13.9528C11.6593 14.7219 12.6 16.1561 12.6 17.4Z" stroke="currentColor" stroke-width="2" stroke-linecap="round" stroke-linejoin="round"/>
</svg>
