<svg viewBox="0 0 47 47" fill="none" xmlns="http://www.w3.org/2000/svg">
<path d="M0.105441 9.73576C0.406701 8.98261 1.26147 8.61628 2.01462 8.91754L7.17645 10.9823C8.22695 11.4025 9.39883 11.4025 10.4493 10.9823L13.4292 9.79031C15.1801 9.08998 17.1332 9.08998 18.884 9.79031L21.8639 10.9823C22.9144 11.4025 24.0863 11.4025 25.1368 10.9823L28.1167 9.79031C29.8676 9.08998 31.8207 9.08998 33.5715 9.79031L36.5514 10.9823C37.6019 11.4025 38.7738 11.4025 39.8243 10.9823L44.9862 8.91754C45.7393 8.61628 46.5941 8.98261 46.8953 9.73576C47.1966 10.4889 46.8303 11.3437 46.0771 11.6449L40.9153 13.7097C39.1645 14.41 37.2113 14.41 35.4605 13.7097L32.4806 12.5177C31.4301 12.0975 30.2582 12.0975 29.2077 12.5177L26.2278 13.7097C24.477 14.41 22.5238 14.41 20.773 13.7097L17.7931 12.5177C16.7426 12.0975 15.5707 12.0975 14.5202 12.5177L11.5403 13.7097C9.78946 14.41 7.83632 14.41 6.08549 13.7097L0.923661 11.6449C0.17051 11.3437 -0.19582 10.4889 0.105441 9.73576ZM0.105441 18.5483C0.406701 17.7951 1.26147 17.4288 2.01462 17.73L7.17645 19.7948C8.22695 20.215 9.39883 20.215 10.4493 19.7948L13.4292 18.6028C15.1801 17.9025 17.1332 17.9025 18.884 18.6028L21.8639 19.7948C22.9144 20.215 24.0863 20.215 25.1368 19.7948L28.1167 18.6028C29.8676 17.9025 31.8207 17.9025 33.5715 18.6028L36.5514 19.7948C37.6019 20.215 38.7738 20.215 39.8243 19.7948L44.9862 17.73C45.7393 17.4288 46.5941 17.7951 46.8953 18.5483C47.1966 19.3014 46.8303 20.1562 46.0771 20.4574L40.9153 22.5222C39.1645 23.2225 37.2113 23.2225 35.4605 22.5222L32.4806 21.3302C31.4301 20.91 30.2582 20.91 29.2077 21.3302L26.2278 22.5222C24.477 23.2225 22.5238 23.2225 20.773 22.5222L17.7931 21.3302C16.7426 20.91 15.5707 20.91 14.5202 21.3302L11.5403 22.5222C9.78946 23.2225 7.83632 23.2225 6.08549 22.5222L0.923661 20.4574C0.17051 20.1562 -0.19582 19.3014 0.105441 18.5483ZM0.105441 27.3608C0.406701 26.6076 1.26147 26.2413 2.01462 26.5425L7.17645 28.6073C8.22695 29.0275 9.39883 29.0275 10.4493 28.6073L13.4292 27.4153C15.1801 26.715 17.1332 26.715 18.884 27.4153L21.864 28.6073C22.9144 29.0275 24.0863 29.0275 25.1368 28.6073L28.1167 27.4153C29.8676 26.715 31.8207 26.715 33.5715 27.4153L36.5514 28.6073C37.6019 29.0275 38.7738 29.0275 39.8243 28.6073L44.9862 26.5425C45.7393 26.2413 46.5941 26.6076 46.8953 27.3608C47.1966 28.1139 46.8303 28.9687 46.0771 29.2699L40.9153 31.3347C39.1645 32.035 37.2113 32.035 35.4605 31.3347L32.4806 30.1427C31.4301 29.7225 30.2582 29.7225 29.2077 30.1427L26.2278 31.3347C24.477 32.035 22.5238 32.035 20.773 31.3347L17.7931 30.1427C16.7426 29.7225 15.5707 29.7225 14.5202 30.1427L11.5403 31.3347C9.78946 32.035 7.83632 32.035 6.08549 31.3347L0.923661 29.2699C0.17051 28.9687 -0.19582 28.1139 0.105441 27.3608ZM0.105441 36.1733C0.406701 35.4201 1.26147 35.0538 2.01462 35.355L7.17645 37.4198C8.22695 37.84 9.39883 37.84 10.4493 37.4198L13.4292 36.2278C15.1801 35.5275 17.1332 35.5275 18.884 36.2278L21.864 37.4198C22.9144 37.84 24.0863 37.84 25.1368 37.4198L28.1167 36.2278C29.8676 35.5275 31.8207 35.5275 33.5715 36.2278L36.5514 37.4198C37.6019 37.84 38.7738 37.84 39.8243 37.4198L44.9862 35.355C45.7393 35.0538 46.5941 35.4201 46.8953 36.1733C47.1966 36.9264 46.8303 37.7812 46.0771 38.0824L40.9153 40.1472C39.1645 40.8475 37.2113 40.8475 35.4605 40.1472L32.4806 38.9552C31.4301 38.535 30.2582 38.535 29.2077 38.9552L26.2278 40.1472C24.477 40.8475 22.5238 40.8475 20.773 40.1472L17.7931 38.9552C16.7426 38.535 15.5707 38.535 14.5202 38.9552L11.5403 40.1472C9.78946 40.8475 7.83632 40.8475 6.08549 40.1472L0.923661 38.0824C0.17051 37.7812 -0.19582 36.9264 0.105441 36.1733Z" fill="currentColor"/>
</svg>
