<svg viewBox="0 0 48 48" fill="none" xmlns="http://www.w3.org/2000/svg">
<path d="M37.5 6C33.3579 6 30 9.35786 30 13.5C30 14.3284 29.3284 15 28.5 15C27.6716 15 27 14.3284 27 13.5C27 7.70101 31.701 3 37.5 3C43.299 3 48 7.70101 48 13.5C48 19.299 43.299 24 37.5 24H1.5C0.671573 24 0 23.3284 0 22.5C0 21.6716 0.671573 21 1.5 21H37.5C41.6421 21 45 17.6421 45 13.5C45 9.35786 41.6421 6 37.5 6ZM16.5 9C14.8431 9 13.5 10.3431 13.5 12C13.5 12.8284 12.8284 13.5 12 13.5C11.1716 13.5 10.5 12.8284 10.5 12C10.5 8.68629 13.1863 6 16.5 6C19.8137 6 22.5 8.68629 22.5 12C22.5 15.3137 19.8137 18 16.5 18H1.5C0.671573 18 0 17.3284 0 16.5C0 15.6716 0.671573 15 1.5 15H16.5C18.1569 15 19.5 13.6569 19.5 12C19.5 10.3431 18.1569 9 16.5 9ZM0 28.5C0 27.6716 0.671573 27 1.5 27H31.625C36.5956 27 40.625 31.0294 40.625 36C40.625 40.9706 36.5956 45 31.625 45C26.6544 45 22.625 40.9706 22.625 36C22.625 35.1716 23.2966 34.5 24.125 34.5C24.9534 34.5 25.625 35.1716 25.625 36C25.625 39.3137 28.3113 42 31.625 42C34.9387 42 37.625 39.3137 37.625 36C37.625 32.6863 34.9387 30 31.625 30H1.5C0.671573 30 0 29.3284 0 28.5Z" fill="currentColor"/>
</svg>
